<?xml version="1.0" encoding="UTF-8"?><svg id="Layer_2" xmlns="http://www.w3.org/2000/svg" viewBox="0 0 947.28 178.98"><defs><style>.cls-1{fill:#007f3e;}.cls-2{fill:#8dc63f;}.cls-3{fill:#ffffff;}</style></defs><g id="Print"><polygon class="cls-2" points="94.35 0 73.98 70.74 0 70.74 60.69 109.48 114.53 70.24 94.35 0"/><polygon class="cls-1" points="115.72 70.74 36.44 178.94 94.34 133.89 152.62 178.94 127.52 109.91 188.86 70.74 115.72 70.74"/><path class="cls-3" d="m423.99,162.88v-35.68c0-16.67-7.48-27.9-33.5-27.9-22.75,0-35.68,7.95-39.42,23.38l22.13,2.03c1.56-6.55,5.92-9.66,14.95-9.66,8.42,0,12,3.74,12.47,9.82,0,.62.16,2.96.16,3.74-3.27.15-6.39.47-9.35.78-26.95,2.65-42.38,11.22-42.38,28.36,0,13.08,9.51,21.19,23.84,21.19s21.82-4.05,28.52-10.9c0,4.36.31,8.31,1.25,9.86h23.06c-1.41-2.96-1.72-10.49-1.72-15Zm-23.21-8.57c-3.27,4.99-9.04,9.66-16.99,9.66-6.08,0-9.81-2.65-9.81-8.41,0-7.33,6.7-11.84,18.54-13.86,2.49-.46,5.3-.79,8.27-.94v13.56Z"/><path class="cls-3" d="m294.78,100.61h9.19l1.56-23.67h21.81v23.67h15.88v16.35h-15.88v33.49c0,6.08,2.49,9.5,8.26,10.28,2.96.31,5.91.31,9.18,0v17.29c-3.74.47-9.18.94-14.02.94-17.6,0-26.95-8.27-26.95-24.61v-37.39h-9.03v-16.35"/><path class="cls-3" d="m434.15,100.58h23.23v16.92c3.59-9.19,12.77-17.6,24.14-17.6,2.34,0,4.36.16,5.61.47v19.46c-1.56-.31-4.99-.47-7.01-.47-9.19,0-16.98,4.67-21.34,12.92v45.57h-24.64v-77.28Z"/><path class="cls-3" d="m204.7,150.79l20.4-7.96c4.24,10.35,10.98,16.56,25.27,16.56,10.35,0,16.94-4.29,16.94-11.31,0-9.71-11.45-11.94-24.17-15.13-16.16-3.97-34.68-9.55-34.68-32.96,0-18,15.22-30.74,40.49-30.74,22.12,0,34.99,9.88,40.96,26.12l-21.81,6.69c-2.98-8.76-9.89-12.74-19.46-12.74-8.64,0-14.44,3.66-14.44,9.87,0,9.39,10.2,11.15,24.64,14.65,17.41,4.14,33.73,10.66,33.73,32.81,0,18.79-13.65,32.33-41.74,32.33s-40.02-12.1-46.14-28.19Z"/><polygon class="cls-3" points="497.28 90.42 470.45 90.42 470.45 70.75 548.8 70.75 548.8 90.42 521.78 90.42 521.78 177.87 497.28 177.87 497.28 90.42"/><path class="cls-3" d="m531.94,100.58h23.05v16.92c3.59-9.19,12.77-17.6,24.13-17.6,2.34,0,4.37.16,5.62.47v19.46c-1.57-.31-4.98-.47-7.01-.47-9.19,0-16.98,4.67-21.33,12.92v45.57h-24.45v-77.28Z"/><path class="cls-3" d="m676.78,99.2c-11.99,0-19.15,6.54-23.52,13.24v-41.71h-23.83v107.12h14.63l3.43-11.37c5.92,7.8,12.92,12.47,25.54,12.47,18.37,0,31.16-13.4,31.16-39.87s-9.66-39.88-27.42-39.88Zm-10.42,66.66c-8.1,0-12.93-7.16-12.93-18.37v-20.25c1.71-7.48,6.08-11.53,13.09-11.53,9.34,0,12.76,7.79,12.76,24.14,0,17.44-3.42,26.01-12.91,26.01Z"/><path class="cls-3" d="m711.34,154.35v-53.77h24.29v52.53c0,7.32,3.11,10.12,9.51,10.12,5.75,0,9.97-3.9,12.45-9.03v-53.62h24.3v77.28h-23.37l.16-11.21c-5.29,8.26-13.71,12.3-24.77,12.3-13.23,0-22.58-7.47-22.58-24.6Z"/><path class="cls-3" d="m792.04,100.58h23.29l-.08,12.82c4.52-6.39,11.82-14.17,24.91-14.17,15.88,0,22.27,9.5,22.27,24.29v54.34h-24.14v-53.57c0-4.82-2.48-8.41-8.4-8.41-6.38,0-10.6,4.37-13.71,9.04v52.94h-24.14v-77.28Z"/><path class="cls-3" d="m868.49,140.21c0-24.91,18.37-41.11,39.85-41.11,24.14,0,38.31,15.88,38.94,39.87,0,1.71,0,2.96-.16,4.67h-53.41c.31,13.86,7.48,19.93,16.97,19.93,7.79,0,12.78-3.89,15.59-11.52l20.07,2.65c-5.14,14.63-17.9,24.29-37.84,24.29-23.2,0-40.01-15.26-40.01-38.77Zm54.49-9.19c-.78-10.43-5.29-16.82-14.32-16.82-7.78,0-14.01,6.23-14.64,16.82h28.96Z"/><polygon class="cls-3" points="594.96 70.74 619.31 70.74 619.27 90.42 594.92 90.42 594.96 70.74"/><rect class="cls-3" x="594.91" y="100.58" width="24.36" height="77.34"/></g></svg>